<?xml version="1.0" standalone="no"?>
<!DOCTYPE svg PUBLIC "-//W3C//DTD SVG 1.1//EN" "http://www.w3.org/Graphics/SVG/1.1/DTD/svg11.dtd" >
<!--
2013-9-30: Created.
-->
<svg>
<metadata>
Created by iconfont
</metadata>
<defs>

<font id="iconfont" horiz-adv-x="1024" >
  <font-face
    font-family="iconfont"
    font-weight="500"
    font-stretch="normal"
    units-per-em="1024"
    ascent="896"
    descent="-128"
  />
    <missing-glyph />
    
    <glyph glyph-name="delta-right" unicode="&#58948;" d="M325.456896 33.720320000000015M882.05824 33.720320000000015M236.027904 18.838527999999997M960.132096 18.838527999999997M154.215424 19.840000000000032M816.575488 386.208768L209.619968 832.929792 209.619968-61.02220799999998ZM871.471104 19.840000000000032"  horiz-adv-x="1024" />

    
    <glyph glyph-name="lightning" unicode="&#58885;" d="M826.04032 894.28992L504.32 745.84064 188.93824 312.86271999999997 572.43648 312.86271999999997 312.64768-126.28992000000005 826.04032 430.3872 448.72704 430.3872Z"  horiz-adv-x="1024" />

    
    <glyph glyph-name="shake-hands" unicode="&#59082;" d="M838.872178 658.4433779999999l-98.531556-60.188444 7.168-12.162844c-47.945956 13.676089-143.177956 38.331733-193.422222 38.331733-47.559111 0-72.931556-12.276622-105.927111-28.205511-6.485333-3.083378-60.074667-28.785778-61.098667-29.013333l-115.143111 0.329956-106.154667-145.294222 74.638222-68.608c-6.303289-16.440889-2.605511-32.494933 7.395556-44.032 9.591467-11.1616 23.870578-17.351111 40.846222-14.097067-11.389156-21.617778-9.9328-39.025778 2.730667-53.589333 12.242489-14.097067 29.445689-19.296711 52.565333-10.592711-4.096-15.553422-2.628267-29.479822 8.192-42.097778 9.773511-11.377778 24.314311-17.419378 41.642667-14.336l4.096 0.796444c-7.361422-19.262578-4.016356-34.679467 6.371556-46.648889 15.792356-18.397867 43.064889-20.400356 60.871111-4.664889l16.156444 13.983289 15.587556-29.229511c7.657244-14.518044 26.146133-21.754311 42.666667-13.084444 16.304356 8.772267 21.333333 27.886933 13.539556 42.780444-11.264 21.060267-29.809778 55.1936-29.809778 55.1936 0.671289 15.860622-4.926578 22.687289-13.312 31.402667l11.832889 7.964444c0 0 33.450667-64.182044 45.511111-86.9376 7.668622-14.848 26.385067-21.617778 42.666667-13.073067 16.873244 9.056711 21.105778 28.398933 13.539556 42.894222l-49.038222 91.591111 13.880889 8.772267 54.613333-102.855111c8.237511-15.610311 27.363556-21.230933 42.666667-13.198222 16.7936 9.136356 21.276444 28.125867 13.539556 42.894222l-56.775111 106.848711 14.449778 8.647111c0 0 37.546667-72.135111 51.086222-97.848889 7.657244-14.518044 26.146133-21.754311 42.666667-13.084444 15.815111 8.419556 21.731556 27.306667 13.539556 42.9056l-37.432889 70.530844c27.704889 16.406756 45.135644 41.472 65.194667 72.146489l50.062222 31.516444 15.485156-24.723911 106.643911 55.523556L838.872178 658.4433779999999zM338.818844 252.8256c-9.477689-8.430933-23.984356-6.974578-31.630222 2.1504-8.055467 8.999822-6.417067 28.797156 9.102222 38.582044 1.069511 0.705422 86.892089 75.025067 87.722667 75.764622 9.090844 8.078222 23.369956 7.418311 31.744-2.264178 8.339911-9.489067 7.554844-23.711289-1.934222-31.982933L338.818844 252.8256zM399.576178 200.03271099999995c-9.363911-8.2944-23.7568-7.122489-31.744 2.173156-7.736889 8.988444-7.623111 22.061511 0.227556 30.492444 1.285689 1.297067 69.518222 60.336356 70.883556 61.553778 9.284267 8.271644 23.540622 7.168 31.744-2.161778 8.556089-9.989689 7.281778-24.257422-1.934222-32.073956L399.576178 200.03271099999995zM495.149511 177.277156l-43.349333-37.432889c-9.272889-8.237511-23.643022-7.224889-31.857778 2.275556-8.442311 9.614222-7.133867 24.155022 2.048 31.982933l43.349333 37.762844c8.283022 7.088356 21.526756 7.839289 31.061333-1.695289C503.955911 204.11733300000003 506.527289 187.18719999999996 495.149511 177.277156M778.797511 409.4976c-1.627022-1.627022-3.242667-3.094756-4.209778-4.539733-14.677333-22.880711-36.260978-51.359289-58.185956-62.7712-86.596267 118.545067-134.951822 157.331911-197.700267 213.174044l-146.204444-68.5056c-10.922667-5.449956-24.667022-0.773689-30.151111 10.695111-5.506844 11.252622-0.876089 24.928711 10.467556 30.378667l141.767111 66.446222c17.976889 6.599111 36.636444 9.682489 59.733333 9.682489 48.2304 0 162.224356-31.698489 209.874489-44.987733l68.869689-117.475556L778.797511 409.4976zM47.047111 490.860089l122.390756 178.016711 90.055111-72.192L139.912533 430.774044 47.047111 490.860089zM263.497956 322.685156c-8.510578 9.739378-7.111111 24.257422 1.934222 31.971556l77.710222 67.584c9.443556 7.862044 23.745422 7.031467 31.857778-2.389333 8.419556-9.671111 7.509333-23.779556-1.934222-32.085333l-77.824-67.356444C286.981689 312.88888899999995 272.0768 312.7296 263.497956 322.685156z"  horiz-adv-x="1024" />

    
    <glyph glyph-name="arrow-right" unicode="&#58930;" d="M723.696401 362.89725599999997c0.486519 0.973037 1.337926 1.824445 1.702815 2.797482 8.514075 17.757928 5.716593 39.651265-9.365483 53.881934L372.30835 744.692719c-18.730966 17.757928-48.28697 16.906521-66.044898-1.824445-17.757928-18.730966-16.906521-48.28697 1.824445-66.044898l308.452785-291.789524L309.304193 88.98729100000003c-18.609336-17.879558-19.095855-47.435562-1.216296-66.044898 9.122224-9.487112 21.406818-14.352298 33.569783-14.352298 11.676446 0 23.352892 4.378667 32.353486 13.136002l340.563012 328.278418c0.608148 0.608148 0.851408 1.581185 1.581185 2.189334 0.486519 0.486519 0.973037 0.851408 1.581185 1.337926C720.53403 356.329255 721.871956 359.73488499999996 723.696401 362.89725599999997L723.696401 362.89725599999997zM723.696401 362.89725599999997"  horiz-adv-x="1024" />

    
    <glyph glyph-name="pen" unicode="&#58992;" d="M295.581454-35.44115099999999L92.254451 167.88484500000004l562.02665 562.031684 203.325996-203.325996L295.581454-35.44115099999999 295.581454-35.44115099999999zM295.581454-35.44115099999999M988.661735 752.957819L880.643352 860.97016c-26.31967 26.31967-70.851666 24.461989-99.461973-4.153353L679.701633 755.337061l203.325996-203.325996L984.507375 653.4898049999999C1013.111641 682.106153 1014.976371 726.639156 988.661735 752.957819L988.661735 752.957819zM988.661735 752.957819M73.372554 135.89849100000004L1.485823-126.19970999999998l262.070009 71.887738L73.372554 135.89849100000004zM73.372554 135.89849100000004"  horiz-adv-x="1024" />

    
    <glyph glyph-name="smell-face" unicode="&#58955;" d="M277.68246963 410.49393633c39.71113594 0 71.92061719 32.16979072 71.92061719 71.88092578l0 143.80154385c0 39.71113594-32.20948213 71.90077148-71.92061719 71.90077148-39.69129023 0-71.88092578-32.18963643-71.88092578-71.90077148l0-143.80154385C205.80154385 442.64388135 237.97133369 410.49393633 277.68246963 410.49393633L277.68246963 410.49393633zM511.34509356 122.89084863000005c-191.4310916 0-358.72987852 85.43550146-449.34509356 212.74531436l0-143.82138955c90.63506074-127.25027578 257.91400195-212.70562295 449.34509356-212.70562295 191.41124589 0 358.71003281 85.45534717 449.32524785 212.70562295l0 143.82138955C870.07497207 208.34619668000005 702.77618516 122.89084863000005 511.34509356 122.89084863000005L511.34509356 122.89084863000005zM745.02756318 410.49393633c39.69129023 0 71.88092578 32.16979072 71.88092578 71.88092578l0 143.80154385c0 39.71113594-32.18963643 71.90077148-71.88092578 71.90077148-39.73098164 0-71.92061719-32.18963643-71.92061719-71.90077148l0-143.80154385C673.10694599 442.64388135 705.29658242 410.49393633 745.02756318 410.49393633L745.02756318 410.49393633zM745.02756318 410.49393633"  horiz-adv-x="1024" />

    
    <glyph glyph-name="message" unicode="&#59004;" d="M512.852414 496.473631c-30.783097 0-55.740512-24.958438-55.740512-55.740512 0-30.783097 24.957415-55.740512 55.740512-55.740512 30.783097 0 55.740512 24.957415 55.740512 55.740512C568.592926 471.515193 543.635511 496.473631 512.852414 496.473631zM289.88832 496.473631c-30.783097 0-55.740512-24.958438-55.740512-55.740512 0-30.783097 24.957415-55.740512 55.740512-55.740512 30.783097 0 55.740512 24.957415 55.740512 55.740512C345.629855 471.515193 320.671417 496.473631 289.88832 496.473631zM512.852414 830.919772c-246.27501 0-445.927165-174.709067-445.927165-390.186653 0-123.156948 65.361637-232.816486 167.222559-304.315914l0-197.352787 195.352223 118.529557c27.039843-4.461615 54.843072-7.04751 83.352383-7.04751 246.27501 0 445.928189 174.680415 445.928189 390.186653C958.779579 656.2096819999999 759.1264 830.919772 512.852414 830.919772zM512.852414 106.28697699999998c-32.552393 0-63.98836 3.781116-94.213755 10.233062l-131.200134-78.876442 1.755993 129.282458c-100.596116 60.476373-166.528758 160.472831-166.528758 273.80604 0 184.697559 174.694741 334.446142 390.186653 334.446142 215.491912 0 390.186653-149.748582 390.186653-334.446142C903.039068 256.008954 728.344327 106.28697699999998 512.852414 106.28697699999998zM735.816508 496.473631c-30.783097 0-55.740512-24.958438-55.740512-55.740512 0-30.783097 24.957415-55.740512 55.740512-55.740512 30.783097 0 55.740512 24.957415 55.740512 55.740512C791.55702 471.515193 766.598582 496.473631 735.816508 496.473631z"  horiz-adv-x="1024" />

    
    <glyph glyph-name="search" unicode="&#58901;" d="M936.831196-27.623894999999948l-204.41053 204.40746c30.595832 33.958416 54.747905 72.486918 71.907727 114.802676 19.09387 47.084365 28.7723 96.826256 28.774347 147.851373-0.002047 51.02614-9.680477 100.772124-28.774347 147.854443-19.772322 48.756447-48.812729 92.494601-86.317924 129.99775-37.501102 37.502126-81.239256 66.543555-129.99775 86.316901-47.084365 19.092847-96.827279 28.7723-147.851373 28.7723-51.025117 0-100.770078-9.679453-147.853419-28.7723-48.756447-19.771299-92.495624-48.813752-129.999796-86.316901-37.502126-37.503149-66.542532-81.241302-86.313831-129.99775-19.094894-47.083341-28.774347-96.828302-28.77537-147.854443 0.001023-51.025117 9.680477-100.768031 28.773324-147.851373 19.772322-48.756447 48.812729-92.495624 86.315878-129.99775 37.504172-37.502126 81.243349-66.544579 129.999796-86.317924 47.084365-19.0908 96.828302-28.7723 147.853419-28.774347 51.024094 0.002047 100.770078 9.683547 147.851373 28.774347 42.315758 17.158798 80.843236 41.309848 114.802676 71.906703l204.40746-204.408483c8.176217-8.176217 21.431102-8.17417 29.609365 0.002047C945.00332-49.05499699999996 945.00639-35.80011200000001 936.831196-27.623894999999948zM440.160323 89.16706499999998c-93.562932 0.002047-181.52531 36.433794-247.680009 102.591563-66.156746 66.156746-102.592586 154.119123-102.594633 247.678986 0 93.562932 36.436864 181.524287 102.594633 247.680009 66.154699 66.157769 154.117077 102.59361 247.680009 102.594633 93.561909-0.001023 181.521217-36.435841 247.680009-102.594633 66.156746-66.155722 102.59054-154.117077 102.59054-247.680009 0-93.559862-36.433794-181.521217-102.59054-247.678986C621.68154 125.60085900000001 533.722232 89.16706499999998 440.160323 89.16706499999998z"  horiz-adv-x="1024" />

    
    <glyph glyph-name="video" unicode="&#58935;" d="M793.6-76.79999999999995l-563.2 0c-113.1008 0-204.8 91.6992-204.8 204.8L25.6 640c0 113.1008 91.6992 204.8 204.8 204.8l563.2 0c113.1008 0 204.8-91.6992 204.8-204.8l0-512C998.4 14.89919999999995 906.7008-76.79999999999995 793.6-76.79999999999995zM947.2 609.28c0 101.7856-82.5344 184.32-184.32 184.32L261.12 793.6C159.3344 793.6 76.8 711.0656 76.8 609.28l0-450.56c0-101.7856 82.5344-184.32 184.32-184.32l501.76 0c101.7856 0 184.32 82.5344 184.32 184.32L947.2 609.28zM384 587.7760000000001l307.2-203.776-307.2-203.776L384 587.7760000000001z"  horiz-adv-x="1024" />

    
    <glyph glyph-name="send-message" unicode="&#58946;" d="M915.515273 753.180615L98.213046 437.800878c-46.058539-17.772838-44.90475-43.601756 2.348455-57.622994l197.477685-58.594874 80.292024-238.91085c10.51184-31.277988 37.972822-37.873693 61.462483-14.603752l103.584447 102.611545 204.475018-149.840224c26.565749-19.467242 53.878547-9.222132 61.049613 23.090076l149.210699 672.34491C965.264096 748.494946 946.218922 765.028152 915.515273 753.180615zM791.141174 601.165669l-348.61988-310.610267c-6.268679-5.58499-11.941557-16.652774-12.812263-24.846818l-15.390659-144.697741c-1.728128-16.24808-7.330491-16.918483-12.497501-1.344894l-67.457277 203.338603c-2.638691 7.954906 0.975968 17.705389 8.022355 21.931178l442.114555 265.181253C812.67481 627.015026 815.674251 623.024287 791.141174 601.165669z"  horiz-adv-x="1024" />

    
    <glyph glyph-name="edit-pen" unicode="&#58888;" d="M79.36-20.480000000000018h343.04v-51.2H79.36zM550.4-20.480000000000018h376.32v-51.2H550.4zM629.76 737.28l215.04-215.04L373.76 51.200000000000045l-215.04 215.04L629.76 737.28z m0 0M716.8 821.76l215.04-215.04-64-64-215.04 215.04L716.8 821.76z m0 0M138.24 243.20000000000005l215.04-215.04L51.2-56.32000000000005l87.04 299.52z m0 0M798.72 824.3199999999999L931.84 691.2c23.04-23.04 20.48-58.88-2.56-81.92-23.04-23.04-61.44-25.6-81.92-2.56l-133.12 133.12c-23.04 20.48-23.04 58.88 2.56 81.92 23.04 23.04 58.88 25.6 81.92 2.56z m0 0"  horiz-adv-x="1024" />

    
    <glyph glyph-name="add" unicode="&#58918;" d="M951.40675906 424.82353781H554.56431219V821.66598469a40.640655 40.640655 0 0 1-81.28130907 0v-396.84244688H76.43378281a40.640655 40.640655 0 0 1 0-81.28131h396.84922031v-396.85599375a40.640655 40.640655 0 0 1 81.28130907 0v396.85599375h396.84244687a40.640655 40.640655 0 0 1 0 81.28131z"  horiz-adv-x="1024" />

    
    <glyph glyph-name="male" unicode="&#58898;" d="M865.44219 513.394224V671.184571c-31.312481-30.493854-125.352253-121.975417-174.060557-169.353453 47.889677-58.531828 76.643949-132.719896 76.643949-213.559308 0-188.079544-155.334466-341.162786-346.279204-341.162786S75.467173 100.19226500000002 75.467173 288.27180999999996s155.334466 341.162786 346.279205 341.162786c74.69971 0 143.77136-23.637854 200.461277-63.44359C670.301989 611.731788 767.104627 703.622664 800.054362 735.037474H627.017088v94.1421h330.008994V513.4965520000001h-91.583892z m-694.400319-225.122414c0-136.199061 112.458879-247.020686 250.806835-247.020686s250.806835 110.821625 250.806835 247.020686-112.663536 247.020686-250.909163 247.020685-250.704507-110.821625-250.704507-247.020685z"  horiz-adv-x="1024" />

    
    <glyph glyph-name="micro" unicode="&#58971;" d="M801.728 531.2a32 32 0 0 1-32-32v-91.392c0-129.28-115.648-234.432-257.728-234.432S254.272 278.592 254.272 407.808V502.784a32 32 0 0 1-64 0v-94.976c0-157.888 133.248-286.208 300.672-296.448v-111.488H357.632c-16.128 0-29.184-14.336-29.184-32.064 0-17.664 13.056-31.936 29.184-31.936h319.04c16.064 0 29.184 14.272 29.184 31.936 0 17.728-13.12 32.064-29.184 32.064H554.944v113.472c156.992 19.776 278.784 143.488 278.784 294.464V499.2c0 17.728-14.272 32-32 32zM602.176 393.984m-49.856 0a49.856 49.856 0 1 1 99.712 0 49.856 49.856 0 1 1-99.712 0ZM517.12 826.112a199.04 199.04 0 0 1-198.784-198.848v-211.072a199.04 199.04 0 0 1 198.784-198.848 199.104 199.104 0 0 1 198.912 198.848V627.264A199.04 199.04 0 0 1 517.12 826.112z m134.912-227.328H382.336v28.48c0 74.368 60.48 134.848 134.784 134.848a135.04 135.04 0 0 0 134.912-134.848v-28.48z"  horiz-adv-x="1024" />

    
    <glyph glyph-name="arrow-left" unicode="&#59005;" d="M369.728 384l384.768 384.704a48.64 48.64 0 0 1 0.896 68.8 48.64 48.64 0 0 1-68.736-0.96L269.44 419.264a48.704 48.704 0 0 1-11.136-17.344c-1.024-2.304-1.024-4.736-1.472-7.04-0.896-3.648-2.048-7.168-2.048-10.88 0-3.712 1.152-7.232 1.984-10.88 0.512-2.368 0.512-4.8 1.472-7.04a48.704 48.704 0 0 1 11.136-17.344l417.216-417.28a48.576 48.576 0 0 1 68.736-0.96 48.576 48.576 0 0 1-0.896 68.736L369.728 384z"  horiz-adv-x="1024" />

    
    <glyph glyph-name="vip" unicode="&#59016;" d="M885.435733 479.573333l-98.816-98.816a34.133333 34.133333 0 0 0-47.598933-0.6656L512 594.8416 284.962133 380.091733a34.133333 34.133333 0 0 0-47.598933 0.6656l-98.816 98.816c-47.018667 47.018667-126.6688 5.922133-115.592533-59.648L97.28-19.78026699999998a68.266667 68.266667 0 0 1 67.310933-56.900266h694.818134a68.266667 68.266667 0 0 1 67.310933 56.900266l74.308267 439.722667c11.076267 65.553067-68.573867 106.6496-115.592534 59.630933zM585.181867 814.370133a103.509333 103.509333 0 0 1-146.363734-146.346666L512 594.8416l73.181867 73.181867a103.4752 103.4752 0 0 1 0 146.346666z"  horiz-adv-x="1024" />

    
    <glyph glyph-name="mail" unicode="&#59021;" d="M893.8496 759.466667H130.1504c-31.470933 0-46.1824-38.980267-22.545067-59.767467l381.8496-335.752533a34.133333 34.133333 0 0 1 45.073067 0l381.8496 335.752533C940.032 720.4864 925.320533 759.466667 893.8496 759.466667zM466.909867 292.86400000000003L56.6784 653.585067C34.628267 672.989867 0 657.322667 0 627.9509330000001V76.79999999999995a68.266667 68.266667 0 0 1 68.266667-68.266667h887.466666a68.266667 68.266667 0 0 1 68.266667 68.266667V627.9509330000001c0 29.371733-34.628267 45.021867-56.6784 25.634134L557.073067 292.86400000000003a68.266667 68.266667 0 0 0-90.1632 0z"  horiz-adv-x="1024" />

    
    <glyph glyph-name="myself" unicode="&#58939;" d="M640 422.4c57.6 38.4 96 108.8 96 185.6C736 729.6 633.6 832 512 832S288 729.6 288 608c0-76.8 38.4-140.8 96-185.6-147.2-57.6-256-211.2-256-390.4 0-19.2 0-44.8 6.4-70.4 0-12.8 12.8-25.6 32-25.6h691.2c12.8 0 32 12.8 32 25.6 6.4 25.6 6.4 44.8 6.4 70.4 0 179.2-108.8 332.8-256 390.4zM352 608C352 697.6 422.4 768 512 768s160-70.4 160-160S601.6 448 512 448 352 518.4 352 608zM832 0H192v32C192 224 332.8 384 512 384s320-160 320-352v-32z"  horiz-adv-x="1024" />

    
    <glyph glyph-name="female" unicode="&#58942;" d="M588.8 832C390.4 832 224 659.2 224 448c0-76.8 25.6-153.6 64-217.6l-32-25.6-83.2 89.6c-19.2 19.2-44.8 19.2-64 0-19.2-19.2-19.2-44.8 0-64l89.6-89.6-121.6-121.6c-19.2-19.2-19.2-44.8 0-64 6.4-12.8 19.2-19.2 32-19.2s25.6 6.4 32 12.8l115.2 128 83.2-89.6c6.4-6.4 19.2-12.8 32-12.8s25.6 6.4 32 12.8c19.2 19.2 19.2 44.8 0 64L320 140.79999999999995l25.6 25.6c64-57.6 147.2-96 243.2-96 204.8 0 371.2 172.8 371.2 377.6s-166.4 384-371.2 384z m0-672c-153.6 0-281.6 128-281.6 288s128 288 281.6 288 281.6-128 281.6-288-128-288-281.6-288z"  horiz-adv-x="1024" />

    
    <glyph glyph-name="side" unicode="&#59013;" d="M892.48 611.6266666700001c-20.58666667 50.77333333-50.88 96.42666667-89.92 135.46666666s-84.58666667 69.33333333-135.46666667 89.92c-49.06666667 19.84-100.90666667 29.97333333-154.02666666 29.97333334s-104.96-10.13333333-154.02666667-29.97333334c-50.77333333-20.58666667-96.42666667-50.88-135.46666667-89.92s-69.33333333-84.58666667-89.92-135.46666666c-19.84-49.06666667-29.97333333-100.90666667-29.97333333-154.02666667s10.13333333-104.96 29.97333333-154.02666667c20.58666667-50.77333333 50.88-96.42666667 89.92-135.46666666l161.28-161.28 63.36 63.36L286.93333333 231.46666667c-124.69333333 124.69333333-124.69333333 327.57333333 0 452.26666666 60.37333333 60.37333333 140.69333333 93.65333333 226.13333334 93.65333334s165.76-33.28 226.13333333-93.65333334c124.69333333-124.69333333 124.69333333-327.57333333 0-452.26666666L449.70666667-58.026666670000054l63.36-63.36 289.49333333 289.49333334c39.04 39.04 69.33333333 84.58666667 89.92 135.46666666 19.84 49.06666667 29.97333333 100.90666667 29.97333333 154.02666667s-10.13333333 104.96-29.97333333 154.02666667zM694.72 473.70666667c0 101.54666667-82.56 184.10666667-184.10666667 184.10666666-101.54666667 0-184.10666667-82.56-184.10666666-184.10666666 0-101.54666667 82.56-184.10666667 184.10666666-184.10666667 101.54666667 0.10666667 184.10666667 82.66666667 184.10666667 184.10666667z m-184.10666667-94.4c-52.05333333 0-94.50666667 42.34666667-94.50666666 94.50666666s42.34666667 94.50666667 94.50666666 94.50666667 94.50666667-42.34666667 94.50666667-94.50666667-42.34666667-94.50666667-94.50666667-94.50666666z"  horiz-adv-x="1024" />

    
    <glyph glyph-name="card-wrap" unicode="&#59266;" d="M166.836439 225.81662100000005h115.050086v-57.525043h-115.050086zM885.927617 743.55224H253.124515c-47.583643 0-86.288076-38.734109-86.288076-86.317751v-57.497414h-28.76508c-47.583643 0-86.288076-38.734109-86.288076-86.317752v-402.684511c0-47.554991 38.704433-86.288076 86.288076-86.288076h604.043139c47.57955 0 86.287053 38.734109 86.287053 86.288076h57.52709c47.580573 0 86.289099 38.736155 86.289099 86.317752V657.2344889999999c0 47.583643-38.70955 86.317752-86.290123 86.317751zM770.875485 110.73583599999995c0-15.841772-12.921262-28.735404-28.760987-28.735404H138.070336c-15.869401 0-28.760987 12.893632-28.760986 28.735404V369.604157h661.566135v-258.868321z m0 316.422017H109.30935v86.26147c0 15.899077 12.892609 28.763033 28.760986 28.763033h604.043139c15.839725 0 28.760987-12.863957 28.760986-28.763033v-86.26147h0.001024zM914.691674 197.05256399999996c0-15.89703-12.920238-28.760987-28.763033-28.760986h-57.52709V513.4193230000001c0 47.583643-38.707503 86.317752-86.287053 86.317752H224.361482v57.497414c0 15.899077 12.891586 28.792709 28.76201 28.792709h632.804125c15.842795 0 28.763033-12.893632 28.763033-28.792709V197.05256399999996z"  horiz-adv-x="1024" />

    
    <glyph glyph-name="good" unicode="&#58922;" d="M793.314 525.938H599.36l26.608 222.143c0.109 0.898 0.168 1.804 0.18 2.705 0.214 15.183-6.782 30.412-20.225 44.044-20.459 20.749-54.819 36.393-79.925 36.393-25.555 0-48.909-12.931-62.477-34.594L303.013 540.24c-5.603-8.955-15.259-14.302-25.828-14.302h-47.932c-85.256 0-154.616-69.36-154.616-154.616v-280.929c0-85.252 69.36-154.616 154.616-154.616h529.701c81.087 0 141.681 59.306 154.427 151.487l34.359 280.929c0.126 1.04 0.189 2.085 0.189 3.129 0.001 85.256-69.359 154.616-154.615 154.616zM126.176 90.39300000000003V371.322c0 56.836 46.241 103.077 103.077 103.077h21.81v-487.084h-21.81c-56.836 0.001-103.077 46.238-103.077 103.078z m736.099 3.531c-7.126-51.539-38.012-106.609-103.321-106.609H302.602v491.24c18.021 5.844 33.685 17.702 44.098 34.339l160.505 256.385c4.081 6.514 11.106 10.406 18.794 10.406 16.559 0 45.855-18.492 48.519-27.787l-29.783-248.663A25.766 25.766 0 0 1 570.32 474.4h222.994c56.341 0 102.268-45.436 103.065-101.593l-34.104-278.883z"  horiz-adv-x="1024" />

    
    <glyph glyph-name="keyboard" unicode="&#60098;" d="M896 640v-512H128V640h768zM298.666667 426.666667H213.333333v-85.333334h85.333334v85.333334z m128 0H341.333333v-85.333334h85.333334v85.333334z m128 0h-85.333334v-85.333334h85.333334v85.333334z m128 0h-85.333334v-85.333334h85.333334v85.333334z m128 0h-85.333334v-85.333334h85.333334v85.333334zM341.333333 554.666667H213.333333v-85.333334h128V554.666667z m128 0H384v-85.333334h85.333333V554.666667z m128 0h-85.333333v-85.333334h85.333333V554.666667z m213.333334 0h-170.666667v-85.333334h170.666667V554.666667zM341.333333 298.66666699999996H213.333333v-85.333334h128v85.333334z m298.666667 0H384v-85.333334h256v85.333334z m170.666667 0h-128v-85.333334h128v85.333334z"  horiz-adv-x="1024" />

    
    <glyph glyph-name="firends" unicode="&#59062;" d="M732.86177059 593.2443396900001V595.37312787C713.70267707 789.0928482 543.3996251 923.20650277 364.58142049 895.5322566c-180.9469928-28.73863953-311.86746439-211.8144205-263.9697299-402.3409608 44.70455153-176.68941647 225.65154433-295.90155241 337.41292095-303.35231024-9.57954602-11.7083342-14.90151718-29.80303434-20.22348687-51.09091603-8.51515268-29.80303434 25.54545802-8.51515268 55.34849089-2.12878816 0-2.12878817 1.06439335-4.25757632 1.06439483-6.38636451 3.19318151-18.0946987 2.12878817-44.70455153-8.51515267-79.82955557-10.64394083-40.4469752-13.83712236-69.18561472-10.64394083-92.60228457 3.19318151-21.28788169 12.772729-38.31818702 25.54545801-51.09091457 12.772729-12.772729 30.8674277-27.67424619 39.38258035-34.06061066 8.51515268-6.38636451 18.0946987-8.51515268 23.41666985 1.06439332 5.32196969 8.51515268-1.06439335 13.83712236-5.32196968 17.03030536-2.12878817 2.12878817-29.80303434 23.41666985-39.38258184 34.06061069-9.57954602 10.64394083-15.96591053 21.28788169-18.09469868 37.2537922-3.19318151 17.03030533 0 42.57576335 10.64394084 80.89395039 10.64394083 38.31818702 11.7083342 68.12122137 8.51515267 91.53788974 0 1.06439335 0 3.19318151-1.06439483 4.25757634 23.41666985 0 42.57576335-2.12878817 29.80303436 18.09469869-9.57954602 17.03030533-20.22348686 32.99621587-32.99621588 41.51137001 30.8674277 11.7083342 64.92803839 34.0606107 96.8598609 64.92803838 7.45075786 6.38636451 13.83712236 13.83712236 21.2878817 21.28788167s13.83712236 15.96591053 20.22348684 23.4166684c53.2197042 65.99243322 94.73107274 152.20835327 97.92425427 244.81063784v18.09469868c2.12878817 7.45075786 1.06439335 14.90151718 1.06439482 22.35227649z m-160.72350596 159.65911112c-53.2197042 51.09091603-111.76137809 81.95834372-101.11743576 92.60228458 10.64394083 10.64394083 69.18561472-14.90151718 122.40531746-65.99243321 53.2197042-51.09091603 81.95834372-109.63258992 71.31440289-120.27653074s-39.38258037 42.57576335-92.60228459 93.66667937zM683.89964272 560.24812236c-9.57954602-2.12878817-21.28788169 8.51515268-25.54545802 24.48106467-4.25757632 15.96591053 1.06439335 31.93182253 10.64394085 34.06061068 10.64394083 2.12878817 21.28788169-8.51515268 25.54545801-24.48106466 4.25757632-15.96591053 0-31.93182253-10.64394084-34.06061069zM1051.11559802 663.49434776v1.06439483c-13.83712236 149.01517028-144.75759394 251.19700087-281.00003524 229.90911918-44.70455153-7.45075786-85.15152524-26.60985137-118.14774259-54.28409753 70.25000955-54.28409755 120.27653075-138.37122943 129.85607825-238.42427186v-2.12878819c1.06439335-7.45075786 1.06439335-14.90151718 1.06439335-22.35227648v-18.09469869c-2.12878817-61.73485686-22.35227502-121.3409241-50.0265212-173.49623349 32.99621587-18.0946987 67.05682655-28.73863953 94.73107272-30.86742917-7.45075786-9.57954602-10.64394083-22.35227502-14.90151718-38.31818702-6.38636451-23.41666985 19.15909351-6.38636451 42.57576337-2.12878817 0-2.12878817 1.06439335-3.19318151 1.06439334-5.32196968 2.12878817-13.83712236 1.06439335-34.0606107-6.3863645-61.73485687-8.51515268-30.8674277-10.64394083-52.15530939-8.51515265-70.25000807 2.12878817-17.03030533 9.57954602-29.80303434 19.15909351-39.38258038 9.57954602-10.64394083 23.41666985-21.28788169 29.80303434-25.54545801 6.38636451-5.32196969 13.83712236-6.38636451 18.09469868 1.06439335 4.25757632 6.38636451 0 10.64394083-4.25757633 13.83712383-2.12878817 2.12878817-22.35227502 18.0946987-29.80303435 25.54545655-7.45075786 8.51515268-11.7083342 15.96591053-13.83712234 28.738641-2.12878817 13.83712236 0 32.99621587 7.45075932 61.73485539 8.51515268 29.80303434 9.57954602 52.15530939 6.38636302 70.25000953 0 1.06439335 0 2.12878817-1.06439335 3.19318153 18.0946987 0 31.93182253-2.12878817 23.41666986 13.83712383-7.45075786 13.83712236-14.90151718 25.54545802-25.54545802 31.93182252 23.41666985 8.51515268 48.96212786 25.54545802 74.50758586 48.96212639l15.96591055 15.96591199c5.32196969 5.32196969 10.64394083 11.7083342 15.9659105 18.09469869 40.4469752 50.02652121 72.37879771 117.08334777 74.50758588 187.33335731v13.83712236c-1.06439335 5.32196969-1.06439335 11.7083342-1.0643948 17.03030533z m-123.46971228 122.40531893c-40.4469752 39.38258037-85.15152524 62.79925022-76.63637258 70.25000954 8.51515268 8.51515268 53.2197042-10.64394083 93.66667792-50.02652268 40.4469752-39.38258037 61.73485686-84.08713189 54.28409754-91.53788976-8.51515268-8.51515268-29.80303434 31.93182253-71.31440288 71.3144029zM1013.8618058 637.94888974c-7.45075786-2.12878817-17.03030533 6.38636451-20.22348685 19.15909351-3.19318151 12.772729 0 24.48106321 8.51515267 26.60985285 7.45075786 2.12878817 17.03030533-6.38636451 20.22348685-19.15909351 2.12878817-12.772729-1.06439335-24.48106321-8.51515267-26.60985285z"  horiz-adv-x="1133" />

    
    <glyph glyph-name="column-line" unicode="&#58886;" d="M474.91 829h74.19v-890h-74.19z"  horiz-adv-x="1024" />

    
    <glyph glyph-name="small-bell" unicode="&#58956;" d="M893.545205 132.90958899999998c-8.416438 35.068493-127.649315 145.884932-127.649315 196.383562v122.038356c0 98.191781-57.512329 183.758904-140.273972 225.841096 4.208219 12.624658 7.013699 26.652055 7.013698 40.679452V771.156164c0 65.928767-53.30411 119.232877-119.232876 119.232877s-119.232877-53.30411-119.232877-119.232877v-53.304109c0-14.027397 2.805479-28.054795 7.013699-40.679452-82.761644-42.082192-140.273973-126.246575-140.273973-225.841096v-122.038356c0-50.49863-119.232877-161.315068-127.649315-196.383562-11.221918-50.49863 26.652055-95.386301 75.747945-95.386301h133.260274c7.013699-88.372603 81.358904-159.912329 171.134247-159.912329 89.775342 0 165.523288 70.136986 171.134246 159.912329h133.260274c49.09589 0 88.372603 44.887671 75.747945 95.386301z m-378.739726-185.161644c-42.082192 0-78.553425 25.249315-93.983561 63.123288h187.967123c-15.430137-36.471233-51.90137-63.123288-93.983562-63.123288zM464.306849 771.156164c0 26.652055 22.443836 49.09589 49.095891 49.095891s49.09589-22.443836 49.09589-49.095891v-51.901369c-16.832877 1.40274-32.263014 2.805479-49.09589 2.805479s-32.263014-1.40274-49.095891-2.805479V771.156164zM824.810959 110.46575299999995c-1.40274-1.40274-2.805479-2.805479-5.610959-2.805479H209.008219c-2.805479 0-4.208219 1.40274-5.610959 2.805479-1.40274 1.40274-1.40274 2.805479-1.402739 2.80548 7.013699 11.221918 25.249315 32.263014 36.471232 47.693151 56.109589 68.734247 92.580822 117.830137 92.580822 168.328767v122.038356c0 99.594521 81.358904 182.356164 182.356165 182.356164 99.594521 0 182.356164-81.358904 182.356164-182.356164v-122.038356c0-50.49863 36.471233-99.594521 92.580822-168.328767 12.624658-15.430137 29.457534-36.471233 36.471233-47.693151 1.40274 0 0-1.40274 0-2.80548z"  horiz-adv-x="1024" />

    
    <glyph glyph-name="list" unicode="&#58954;" d="M914.9 737.6H183.5c-15.2 0-27.6 12.4-27.6 27.6v4.1c0 15.2 12.4 27.6 27.6 27.6h731.4c15.2 0 27.6-12.4 27.6-27.6v-4.1c0.1-15.2-12.3-27.6-27.6-27.6zM914.9 76.10000000000002H183.5c-15.2 0-27.6 12.4-27.6 27.6v4.1c0 15.2 12.4 27.6 27.6 27.6h731.4c15.2 0 27.6-12.4 27.6-27.6v-4.1c0.1-15.2-12.3-27.6-27.6-27.6zM574.7 406.8H176.6c-11.4 0-20.7 9.3-20.7 20.7v18.1c0 11.4 9.3 20.7 20.7 20.7h398.1c11.4 0 20.7-9.3 20.7-20.7v-18.1c0-11.4-9.3-20.7-20.7-20.7z"  horiz-adv-x="1024" />

    
    <glyph glyph-name="application" unicode="&#58944;" d="M623.3 428.5h169.2v0.1c127.9 1.2 231.5 105.5 231.5 233.7C1024 791.1 919.1 896 790.3 896S556.5 791.1 556.5 662.3c0-0.7 0-1.5 0.1-2.2h-0.1v-164.7c0-36.9 30-66.9 66.8-66.9zM601 660c0.1 0.8 0 1.5 0 2.3 0 104.3 84.9 189.2 189.2 189.2s189.2-84.9 189.2-189.2c0-103.6-83.7-188-187-189.2v-0.1H623.3c-12.3 0-22.3 10-22.3 22.3V660zM233.7 896C104.9 896 0 791.1 0 662.3c0-128.1 103.7-232.5 231.5-233.7v-0.1h169.2c36.8 0 66.8 30 66.8 66.8V660h-0.1c0 0.7 0.1 1.5 0.1 2.2C467.5 791.1 362.6 896 233.7 896zM423 660.1v-164.8c0-12.3-10-22.3-22.3-22.3H231.5v0.1c-103.3 1.2-187 85.6-187 189.2 0 104.3 84.9 189.2 189.2 189.2S423 766.6 423 662.3v-2.2zM792.5 339.4l-169.2 0.1c-36.8 0-66.8-30-66.8-66.8V108h0.1c0-0.7-0.1-1.5-0.1-2.2 0-128.9 104.9-233.7 233.7-233.7S1024-23.100000000000023 1024 105.70000000000005c0 128.2-103.7 232.5-231.5 233.7z m-2.2-422.9c-104.3 0-189.2 84.9-189.2 189.2 0 0.7 0 1.5 0.1 2.2h-0.2V272.70000000000005c0 12.3 10 22.3 22.3 22.3h169.2v-0.1c103.3-1.2 187-85.6 187-189.2 0-104.3-84.9-189.2-189.2-189.2zM400.7 339.5H231.5v-0.1C103.7 338.20000000000005 0 233.89999999999998 0 105.70000000000005 0-23.100000000000023 104.9-128 233.7-128s233.7 104.9 233.7 233.7c0 0.7 0 1.5-0.1 2.2h0.1V272.70000000000005c0.1 36.8-29.9 66.8-66.7 66.8zM423 108c-0.1-0.8 0-1.5 0-2.3 0-104.3-84.9-189.2-189.2-189.2S44.5 1.3999999999999773 44.5 105.70000000000005c0 103.6 83.7 188 187 189.2v0.1h169.2c12.3 0 22.3-10 22.3-22.3V108z"  horiz-adv-x="1024" />

    
    <glyph glyph-name="msg" unicode="&#58900;" d="M294.9 469.1m-36.1 0a36.1 36.1 0 1 1 72.2 0 36.1 36.1 0 1 1-72.2 0ZM439.5 469.1m-36.1 0a36.1 36.1 0 1 1 72.2 0 36.1 36.1 0 1 1-72.2 0ZM584.1 469.1m-36.1 0a36.1 36.1 0 1 1 72.2 0 36.1 36.1 0 1 1-72.2 0ZM728.6 469.1m-36.1 0a36.1 36.1 0 1 1 72.2 0 36.1 36.1 0 1 1-72.2 0ZM79.3 415m-15.1 0a15.1 15.1 0 1 1 30.2 0 15.1 15.1 0 1 1-30.2 0ZM79.3 294.70000000000005m-15.1 0a15.1 15.1 0 1 1 30.2 0 15.1 15.1 0 1 1-30.2 0ZM959.3 706.2c-1 26.5-21.2 54.7-57.5 54.7H121.4c-15.7 0-30.2-5.8-40.6-16.3-10.7-10.7-16.5-25.5-16.5-41.5v-288h30.1v288c0 16.4 11 28.5 28.6 27.7h778.8c18.3 0.5 27-13.5 27.5-25.8v-471.3c0-22-16.6-28.6-27.5-28.3L631.6 204c-10 0-19.5-5.3-25.9-13.6l-93.8-155.8L417 189.89999999999998c-5.9 8.8-15.3 13.6-26 13.6l-271.7 2.1c-16.3 1.2-25.7 14.2-24.9 28v61.2H64.3v-59.6c-1.7-31.1 21.5-57.3 54.8-59.7l272.2-1.2 95-155.3c5.5-9 15.2-14.4 25.7-14.4h0.1c10.5 0 20.3 5.6 25.7 14.6l92.5 153.7c0.8 0.8 1.5 1.1 1.6 1.1l270.8 1.4c27.5 0 56.8 20.5 56.8 58.4l-0.2 472.4z"  horiz-adv-x="1024" />

    
    <glyph glyph-name="photo" unicode="&#58912;" d="M847.657 831.984H175.703c-61.766 0-111.993-50.227-111.993-111.992v-671.954c0-61.765 50.226-111.993 111.993-111.993h671.954c61.765 0 111.992 50.228 111.992 111.993V719.99c0 61.765-50.227 111.993-111.992 111.993z m55.995-783.946c0-30.87-25.127-55.997-55.996-55.997H175.703c-30.87 0-55.996 25.127-55.996 55.997V719.99c0 30.87 25.128 55.996 55.996 55.996h671.954c30.87 0 55.996-25.127 55.996-55.996v-671.953zM835.19 351.31399999999996l-83.995 55.996c-10.444 6.945-23.54 5.688-32.782-1.722l-0.246 0.3-133.184-106.551-197.435 135.752c-0.083 0.055-0.164 0.055-0.218 0.11-2.297 1.53-4.895 2.379-7.52 3.199-0.874 0.273-1.666 0.875-2.57 1.04-2.378 0.492-4.811 0.218-7.273 0.081-1.121-0.082-2.27 0.218-3.363 0-1.23-0.218-2.35-0.984-3.554-1.394-2.27-0.739-4.566-1.367-6.616-2.707-0.083-0.055-0.192-0.055-0.274-0.11L188.17 323.31600000000003c-12.878-8.585-16.35-25.946-7.765-38.824 5.386-8.094 14.273-12.47 23.323-12.47 5.332 0 10.718 1.533 15.503 4.704L371.444 378.19000000000005 803.8 80.95799999999997a27.793 27.793 0 0 1 15.831-4.923c8.913 0 17.663 4.238 23.105 12.14 8.749 12.74 5.523 30.156-7.219 38.934L633.214 266.198l103.956 83.147 66.959-44.621c4.786-3.172 10.171-4.704 15.503-4.704 9.05 0 17.937 4.374 23.323 12.469 8.584 12.877 5.112 30.24-7.766 38.825zM581.674 468.009c69.476 0 125.992 56.516 125.992 125.99 0 69.477-56.516 125.993-125.992 125.993-69.475 0-125.99-56.516-125.99-125.992s56.516-125.991 125.99-125.991z m0 195.985c38.607 0 69.995-31.387 69.995-69.994s-31.388-69.995-69.995-69.995c-38.606 0-69.995 31.39-69.995 69.995 0 38.607 31.39 69.994 69.995 69.994z"  horiz-adv-x="1024" />

    
    <glyph glyph-name="truth-role" unicode="&#59295;" d="M512.01228-62.70897100000002a68.711941 68.711941 0 0 0-39.749306 12.634761L296.450782 74.51025000000004c-105.238856 82.570577-162.446789 199.335954-162.446789 329.760422V640.780271a34.362622 34.362622 0 0 0 19.640316 31.05018L473.621924 823.5468510000001a33.730219 33.730219 0 0 0 3.691066 1.493004c22.316262 7.559163 46.930869 7.559163 69.24713 0 1.258667-0.419556 2.499937-0.923022 3.691066-1.493004L870.346481 671.830451a34.360576 34.360576 0 0 0 19.648502-31.05018v-236.509599c0-130.440841-57.217143-247.189845-161.096024-328.753489L551.72884-50.074209999999994c-11.863189-8.423857-25.789363-12.634762-39.71656-12.634761zM202.731284 619.043201v-214.772529c0-108.87978 47.879474-206.433606 134.811382-274.691199L511.994883 6.000922999999943l175.811168 124.58446c85.590354 67.234287 133.460618 164.788114 133.460618 273.684266V619.043201L522.902304 760.457977c-7.131421 2.072195-14.832823 2.055822-21.930475 0L202.731284 619.043201zM448.986851 259.293767L306.546721 418.599006l64.045665 57.267285 105.708554-118.225635 199.487404 204.051349 61.428047-60.052724-238.042511-243.465011c-13.901615-14.217816-36.933167-13.70514-50.187029 1.119497z"  horiz-adv-x="1024" />

    


  </font>
</defs>
</svg>
