<?xml version="1.0" standalone="no"?>
<!DOCTYPE svg PUBLIC "-//W3C//DTD SVG 1.1//EN" "http://www.w3.org/Graphics/SVG/1.1/DTD/svg11.dtd" >
<!--
2013-9-30: Created.
-->
<svg>
<metadata>
Created by iconfont
</metadata>
<defs>

<font id="iconfont" horiz-adv-x="1024" >
  <font-face
    font-family="iconfont"
    font-weight="500"
    font-stretch="normal"
    units-per-em="1024"
    ascent="896"
    descent="-128"
  />
    <missing-glyph />
    
    <glyph glyph-name="test-info" unicode="&#58880;" d="M1015.808 105.47199999999998q5.12-30.72-12.8-55.296t-48.64-29.696l-122.88-19.456q-29.696-5.12-54.784 12.8t-30.208 48.64l-104.448 661.504q-2.048 15.36 1.536 29.184t11.776 25.6 20.992 19.456 28.16 10.752l121.856 19.456q30.72 5.12 55.296-13.312t29.696-49.152zM500.736 832.512q30.72 0 52.224-21.504t21.504-52.224l0-684.032q0-30.72-21.504-52.224t-52.224-21.504l-106.496 0q-30.72 0-52.224 21.504t-21.504 52.224l0 684.032q0 30.72 16.384 52.224t48.128 21.504l115.712 0zM500.736 316.41600000000005q10.24 0 17.408 9.728t7.168 23.04q0 14.336-7.168 23.552t-17.408 9.216l-106.496 0q-10.24 0-17.408-9.216t-7.168-23.552q0-13.312 7.168-23.04t17.408-9.728l106.496 0zM500.736 446.464q10.24 0 17.408 9.728t7.168 24.064-7.168 23.552-17.408 9.216l-106.496 0q-10.24 0-17.408-9.216t-7.168-23.552 7.168-24.064 17.408-9.728l106.496 0zM179.2 832.512q30.72 0 52.736-21.504t22.016-52.224l0-684.032q0-30.72-22.016-52.224t-52.736-21.504l-106.496 0q-30.72 0-52.736 21.504t-22.016 52.224l0 684.032q0 30.72 22.016 52.224t52.736 21.504l106.496 0zM76.8 576.512q-11.264 0-18.432-9.216t-7.168-23.552q0-13.312 7.168-23.04t18.432-9.728l98.304 0q11.264 0 17.92 9.728t6.656 23.04q0 14.336-6.656 23.552t-17.92 9.216l-98.304 0zM179.2 254.976q11.264 0 17.92 9.216t6.656 22.528q0 14.336-6.656 23.04t-17.92 8.704l-102.4 0q-11.264 0-18.432-8.704t-7.168-23.04q0-13.312 7.168-22.528t18.432-9.216l102.4 0zM179.2 380.928q11.264 0 17.92 9.216t6.656 23.552-6.656 23.552-17.92 9.216l-102.4 0q-11.264 0-18.432-9.216t-7.168-23.552 7.168-23.552 18.432-9.216l102.4 0z"  horiz-adv-x="1026" />

    
    <glyph glyph-name="arrow-right" unicode="&#58930;" d="M723.696401 362.89725599999997c0.486519 0.973037 1.337926 1.824445 1.702815 2.797482 8.514075 17.757928 5.716593 39.651265-9.365483 53.881934L372.30835 744.692719c-18.730966 17.757928-48.28697 16.906521-66.044898-1.824445-17.757928-18.730966-16.906521-48.28697 1.824445-66.044898l308.452785-291.789524L309.304193 88.98729100000003c-18.609336-17.879558-19.095855-47.435562-1.216296-66.044898 9.122224-9.487112 21.406818-14.352298 33.569783-14.352298 11.676446 0 23.352892 4.378667 32.353486 13.136002l340.563012 328.278418c0.608148 0.608148 0.851408 1.581185 1.581185 2.189334 0.486519 0.486519 0.973037 0.851408 1.581185 1.337926C720.53403 356.329255 721.871956 359.73488499999996 723.696401 362.89725599999997L723.696401 362.89725599999997zM723.696401 362.89725599999997"  horiz-adv-x="1024" />

    
    <glyph glyph-name="icon-back" unicode="&#59135;" d="M700.371228 501.474528L174.028569 501.474528l255.952416 227.506551c12.389168 11.011798 13.505595 29.980825 2.492774 42.369993-11.011798 12.386098-29.977755 13.506619-42.367947 2.492774L76.425623 495.024629c-6.960529-5.496178-11.434423-14.003945-11.434423-23.561625 0-0.013303 0.001023-0.026606 0.001023-0.039909 0-0.01228-0.001023-0.025583-0.001023-0.037862 0-0.473791 0.01535-0.946558 0.037862-1.418302 0.001023-0.016373 0.001023-0.032746 0.001023-0.049119 0.39295-8.030907 3.992941-15.595186 10.034541-20.962427l315.040163-280.028764c5.717212-5.083785 12.83533-7.580652 19.925818-7.580652 8.274454 0 16.514115 3.403516 22.442128 10.07445 11.011798 12.387122 9.896394 31.357172-2.492774 42.367947l-256.128425 227.665163 526.518668 0c109.219517 0 198.075241-88.855724 198.075241-198.075241s-88.855724-198.075241-198.075241-198.075241L354.324888 45.303045c-16.57449 0-30.011524-13.437034-30.011524-30.011524s13.437034-30.011524 30.011524-30.011524l346.046341 0c142.31631 0 258.098289 115.783003 258.098289 258.098289S842.686515 501.474528 700.371228 501.474528z"  horiz-adv-x="1024" />

    
    <glyph glyph-name="clock" unicode="&#59408;" d="M736 384L512 384 512 608C512 625.9200000000001 497.92 640 480 640 462.08 640 448 625.9200000000001 448 608l0-256C448 334.08000000000004 462.08 320 480 320l256 0C753.92 320 768 334.08000000000004 768 352 768 369.91999999999996 753.92 384 736 384zM480 832C215.04 832 0 616.96 0 352 0 87.03999999999996 215.04-128 480-128c264.96 0 480 215.04 480 480C960 616.96 744.96 832 480 832zM480-64C250.24-64 64 122.24000000000001 64 352 64 581.76 250.24 768 480 768 709.76 768 896 581.76 896 352 896 122.24000000000001 709.76-64 480-64z"  horiz-adv-x="1024" />

    
    <glyph glyph-name="icon-collected" unicode="&#58890;" d="M512.002047-17.854390999999964l-62.554708 61.180408c-232.28846 200.949708-384.157333 336.436472-384.157333 502.446413 0 135.416156 107.175975 240.298901 245.699911 240.298901 75.902714 0 151.86785-34.997072 201.01213-91.76703 49.072649 56.769958 125.104299 91.76703 201.007013 91.76703 138.453329 0 245.699911-104.883769 245.699911-240.298901 0-166.009941-151.935388-301.496705-384.219755-502.446413L512.002047-17.854390999999964z"  horiz-adv-x="1024" />

    
    <glyph glyph-name="icon-radioed" unicode="&#58935;" d="M725.725 368.524c0-122.054-98.994-221.05-221.05-221.05-122.054 0-220.941 98.994-220.941 221.05 0 122.054 98.887 221.05 220.941 221.05 122.054 0 221.05-98.994 221.05-221.05zM504.721 774.2429999999999c-223.731 0-405.74-182.009-405.74-405.74s182.009-405.74 405.74-405.74c223.731 0 405.74 182.009 405.74 405.74 0 223.731-182.009 405.74-405.74 405.74M504.721-97.29600000000005c-98.243 0-189.516 30.567-264.807 82.8-85.909 59.525-150.903 147.259-181.579 249.793-12.656 42.257-19.412 86.981-19.412 133.206 0 78.403 19.412 152.3 53.733 217.187 34.428 64.887 83.658 120.767 143.184 163.025 75.935 53.948 168.816 85.589 268.884 85.589 83.013 0 161.095-21.772 228.665-60.062 85.482-48.37 154.337-123.019 195.309-212.897 26.919-58.775 41.828-124.094 41.828-192.839 0-91.595-26.599-177.183-72.503-249.363-42.686-67.141-102.107-122.591-172.247-160.558-65.853-35.609-141.145-55.879-221.05-55.879z"  horiz-adv-x="1024" />

    
    <glyph glyph-name="watched" unicode="&#58921;" d="M511.948323 647.192308c-293.14141 0-448.565249-277.992385-448.565249-277.992385s167.818123-247.090585 448.565249-247.090585c280.767592 0 448.604134 247.090585 448.604134 247.090585S822.670134 647.192308 511.948323 647.192308zM512.223592 226.47940700000004c-89.384773 0-161.849178 70.711482-161.849178 157.924799 0 87.212294 72.464405 157.924799 161.849178 157.924799 89.384773 0 161.849178-70.712505 161.849178-157.924799C674.072771 297.19088899999997 601.607342 226.47940700000004 512.223592 226.47940700000004zM511.967766 448.800865c-39.134299 0-70.857814-31.467689-70.857814-70.273507 0-38.805818 31.723515-70.273507 70.857814-70.273507s70.857814 31.467689 70.857814 70.273507C582.82558 417.333176 551.102065 448.800865 511.967766 448.800865z"  horiz-adv-x="1024" />

    
    <glyph glyph-name="phone" unicode="&#58973;" d="M815.92022175 764.27466676c0 35.27312816-28.56626495 63.71519147-63.71519147 63.71519147L266.081716 827.98985823c-35.27312816 0-63.71519147-28.56626495-63.71519147-63.71519147l0-759.24165003c0-35.27312816 28.56626495-63.71519147 63.71519147-63.71519146l485.99911264 0c35.27312816 0 63.71519147 28.56626495 63.71519147 63.71519146L815.79602132 764.27466676zM761.27171501 4.908815089999962c0-5.09224672-4.09863843-9.06668473-9.06668473-9.06668471L266.081716-4.157869620000042c-5.09224672 0-9.06668473 4.09863843-9.06668473 9.06668471L257.01503249 764.27466676c0 5.09224672 4.09863843 9.06668473 9.06668473 9.06668471l485.99911264 0c5.09224672 0 9.06668473-4.09863843 9.06668471-9.06668471L761.14751337 4.908815089999962zM290.54934372 134.94742281000003l437.18806005 0L727.73740377 748.50112003 290.54934372 748.50112003 290.54934372 134.94742281000003zM345.19785047 693.85261207l327.89104534 0 0-504.25668251L345.19785047 189.59592955999995 345.19785047 693.85261207zM502.93331527 65.39477598999997m-31.05028808 0a30.34074075 30.34074075 0 1 1 62.10057618 0 30.34074075 30.34074075 0 1 1-62.10057618 0Z"  horiz-adv-x="1024" />

    
    <glyph glyph-name="arrow-down" unicode="&#58891;" d="M944.083879 606.463698c14.264888-18.286482 15.462157-41.208541 2.670829-51.196009l-417.191704-325.421604c-2.885723-2.261507-12.156878-7.828292-13.732769-9.578146-15.544021-17.181311-37.893029-22.338774-49.947576-11.461029l-392.908648 354.309538c-12.054547 10.887978-9.271154 33.666774 6.272867 50.889017 15.544021 17.21201 37.893029 22.349007 49.988508 11.471262l357.584118-322.443783 408.258241 318.463122C907.910005 631.483534 929.84969 624.7399459999999 944.083879 606.463698z"  horiz-adv-x="1024" />

    
    <glyph glyph-name="pwd" unicode="&#58948;" d="M813.18779653 479.78835453L311.66353923 479.78835453l0 81.84855968c0 111.53263579 90.79104276 202.32367855 202.44788019 202.32367855 111.65683743 0 202.44788019-90.91524441 202.4478802-202.57208062 0-15.15254094 12.17171244-27.32425338 27.32425337-27.32425337s27.32425338 12.17171244 27.32425338 27.32425337c0 141.83771765-115.38287092 257.22058858-257.09638695 257.22058859-68.68323775 0-133.26783708-26.70324758-181.83048881-75.26589933-48.56265053-48.56265053-75.26589933-113.02304942-75.26589934-181.70628719L257.01503249 479.78835453l-57.62933524 0c-33.53431123 0-60.36176046-26.82744923-60.36176047-60.23755883l0-414.95605339c0-33.53431123 26.95165087-61.23116832 60.36176047-61.23116832l613.67789886 0c33.53431123 0 61.10696789 27.69685709 61.10696789 61.23116832L874.17056278 419.55079449C874.29476443 452.96090529 846.72210777 479.78835453 813.18779653 479.78835453zM819.64625647 3.973735310000052c0-3.35343101-2.73242522-6.08585622-6.08585622-6.08585621L199.75830096-2.1121209000000363c-3.35343101 0-6.08585622 2.73242522-6.08585622 6.08585621L193.67244353 419.05399035c0 3.35343101 2.73242522 6.08585622 6.08585621 6.08585621l613.67789886 0c3.35343101 0 6.08585622-2.73242522 6.08585623-6.08585621L819.52205604 3.973735310000052zM501.69130371 338.19903895000004c-30.92608766 0-55.89051953-24.96443187-55.89051953-55.89051954 0-20.3689893 10.92970208-38.25395545 27.32425337-48.06584639L473.12503876 125.81506737999996c0-15.0283393 12.29591408-27.32425338 27.32425338-27.32425337s27.32425338 12.29591408 27.32425336 27.32425337l0 107.06139365c17.76076451 9.31508679 29.80827651 27.94525916 29.80827653 49.43205959C557.58182324 313.23460708000005 532.61739137 338.19903895000004 501.69130371 338.19903895000004z"  horiz-adv-x="1024" />

    
    <glyph glyph-name="user" unicode="&#58884;" d="M793.0053125-63.518020829999955c-0.045 0-0.0890625 0-0.1340625 0l-673.9275 0c-9.680625 0-17.5284375 7.8478125-17.5284375 17.5284375l0 21.06375c-0.298125 5.8753125-0.8540625 38.06625 19.69125 73.4128125 12.85875 22.123125 31.3415625 41.1196875 54.935625 56.4609375 28.5871875 18.5896875 64.79625 31.7896875 107.62125 39.2334375 0.2184375 0.0375 0.4378125 0.07125 0.6571875 0.1003125 0.3253125 0.0440625 33.2803125 4.5553125 66.7584375 13.3809375 58.0265625 15.298125 63.10125 28.8215625 63.136875 28.95375 0.34125 1.3415625 0.838125 2.62875 1.4746875 3.8390625 0.47625 2.5303125 1.65375 12.0553125-0.598125 37.575-5.7196875 64.815-39.4875 103.1203125-66.6196875 133.899375-8.5575 9.7078125-16.6396875 18.8746875-22.8628125 27.8653125-26.85 38.78625-29.3409375 82.89-29.43375 84.7490625-0.0140625 0.2915625-0.0215625 0.583125-0.0215625 0.8746875 0 17.60625 8.7778125 25.704375 16.5225 32.8509375l0.406875 0.3759375c0.2540625 0.2353125 0.414375 0.4096875 0.508125 0.5221875 0.0871875 1.2571875-0.5315625 4.4465625-0.9496875 6.6009375-0.159375 0.819375-0.31875 1.6415625-0.4696875 2.4684375-6.73125 36.545625-7.1915625 92.9925-1.1025 129.2221875 2.259375 47.6371875 43.3359375 84.1040625 45.0984375 85.64625 0.0675 0.058125 0.1340625 0.11625 0.2015625 0.1734375 5.896875 5.0053125 11.88 10.4709375 15.6825 16.5346875 0.4565625 0.7275 0.77625 1.2909375 0.999375 1.7221875-0.2859375 0.7378125-0.695625 1.681875-1.0265625 2.445-2.28375 5.2678125-5.735625 13.2271875-3.7725 23.46 1.185 6.1771875 5.698125 17.214375 22.610625 21.725625 6.8071875 1.8159375 14.083125 2.1871875 19.3959375 2.458125l1.0528125 0.054375c20.990625 1.1053125 43.3809375 2.0409375 66.0328125 0.30375 163.809375-12.55875 220.2375-73.768125 222.55875-76.3678125 0.13125-0.14625 0.25875-0.294375 0.3834375-0.4453125 13.1128125-15.7096875 22.8253125-35.2828125 28.87125-58.1765625 1.8890625-7.14375 3.1021875-13.14 3.8090625-18.8175 5.7215625-33.2484375 4.7671875-67.41 3.545625-90.2521875-0.6871875-12.8203125-2.1159375-26.278125-4.5-42.3525-0.64875-4.365 0.0646875-5.2171875 0.3328125-5.536875 0.710625-0.8503125 1.580625-1.77375 2.50125-2.7515625 3.6215625-3.8428125 8.58-9.1059375 11.21625-17.5509375 1.321875-4.2215625 1.9396875-8.775 1.9396875-14.31375 0-0.2915625-0.0075-0.583125-0.0215625-0.8746875-0.0928125-1.858125-2.58375-45.961875-29.4328125-84.748125-6.2240625-8.990625-14.30625-18.1584375-22.8628125-27.8653125-27.133125-30.778125-60.9-69.0834375-66.6196875-133.90125-2.251875-25.5196875-1.0734375-35.0428125-0.598125-37.575 0.635625-1.2103125 1.1325-2.4984375 1.4746875-3.838125 0.0346875-0.1321875 5.13-13.700625 63.4209375-29.02875 33.4734375-8.8021875 66.148125-13.261875 66.474375-13.3059375 0.285-0.0384375 0.5690625-0.084375 0.8521875-0.1359375 43.215-8.015625 79.6471875-21.555 108.2859375-40.2403125 23.67375-15.44625 42.121875-34.408125 54.8334375-56.356875 20.158125-34.8084375 19.3378125-66.294375 18.93375-72.60375l0-20.9371875c0-9.680625-7.8478125-17.5284375-17.5284375-17.5284375l-165.8278125 0c-9.680625 0-17.5284375 7.8478125-17.5284375 17.5284375 0 9.680625 7.8478125 17.5284375 17.5284375 17.5284375L907.690625-28.464895830000046l0 4.0415625c0 0.6440625 0.0084375 1.036875 0.076875 1.6584375 0.0975 1.41375 1.5253125 26.56125-15.3271875 54.4978125-10.14375 16.816875-24.928125 31.5084375-43.940625 43.6696875-24.46875 15.6496875-56.026875 27.1575-93.79875 34.2028125-4.35 0.6028125-36.57375 5.2171875-70.3884375 14.11875-66.3384375 17.4646875-82.46625 36.8934375-87.3646875 50.99625-3.75375 7.280625-5.8546875 21.7453125-2.7984375 56.3934375 6.7321875 76.2834375 46.3303125 121.201875 75.2446875 154.00125 8.2003125 9.301875 15.2821875 17.3353125 20.3371875 24.6365625 19.8 28.6040625 22.910625 62.15625 23.2171875 66.193125-0.0309375 2.11125-0.2446875 3.0215625-0.339375 3.328125-0.2334375 0.748125-1.7784375 2.3878125-3.271875 3.973125-1.171875 1.2440625-2.50125 2.6559375-3.8775 4.3003125-7.453125 8.91-10.1090625 19.7615625-8.11875 33.1734375 2.22 14.9625 3.5446875 27.380625 4.1709375 39.07875 1.8290625 34.220625 0.856875 59.76375-3.15375 82.8196875-0.0534375 0.305625-0.0984375 0.6140625-0.1359375 0.9215625-0.4978125 4.160625-1.4353125 8.769375-2.95125 14.5021875-4.6753125 17.70375-11.9315625 32.5978125-21.5690625 44.2809375-1.606875 1.63875-14.4234375 14.1796875-43.0153125 27.82125C579.2328125 754.69166667 517.4440625 763.75354167 474.6696875 767.03385417c-20.5640625 1.5759375-41.664375 0.6871875-61.513125-0.3590625l-1.1053125-0.05625c-1.655625-0.084375-4.44-0.226875-7.085625-0.493125 2.295-5.4759375 5.1121875-13.7175 2.1525-23.565-1.1109375-3.69375-2.8153125-7.305-5.3653125-11.3709375-6.31125-10.0621875-14.92875-18.03375-22.5515625-24.5109375-1.4971875-1.351875-32.0840625-29.39625-33.1415625-61.629375-0.0271875-0.815625-0.110625-1.6284375-0.2503125-2.431875-5.59875-32.16-5.2209375-85.10625 0.841875-118.025625 0.13125-0.7171875 0.2709375-1.430625 0.40875-2.1403125 1.85625-9.5671875 4.9640625-25.57875-10.2-39.564375l-0.4078125-0.376875c-1.9565625-1.8046875-4.635-4.2759375-5.0775-5.1271875l0 0c0.0028125 0-0.1246875-0.4003125-0.1546875-1.485 0.3075-4.0275 3.425625-37.55625 23.21625-66.1453125 5.055-7.30125 12.136875-15.3346875 20.3371875-24.6365625 28.9134375-32.7984375 68.5115625-77.7178125 75.24375-153.999375 3.05625-34.6490625 0.9553125-49.11375-2.7984375-56.394375-4.899375-14.1028125-21.02625-33.5315625-87.3646875-50.99625-34.0921875-8.975625-66.568125-13.5909375-70.4896875-14.131875-37.344375-6.523125-68.62125-17.7028125-92.9625-33.2296875-18.924375-12.07125-33.7228125-26.8115625-43.9865625-43.81125-17.139375-28.389375-16.0621875-54.2446875-15.9890625-55.6275 0.046875-0.5090625 0.050625-0.81375 0.050625-1.344375l0-4.0396875 656.3221875 0M623.9984375 195.90979167c0.425625-0.345 0.834375-0.7096875 1.224375-1.0921875C624.8534375 195.18041667 624.445625 195.54697917 623.9984375 195.90979167zM420.1634375 195.90979167c-0.4425-0.3590625-0.845625-0.72-1.21125-1.08C419.3375 195.20572917000004 419.7425 195.56666667000002 420.1634375 195.90979167z"  horiz-adv-x="1024" />

    
    <glyph glyph-name="test-action" unicode="&#58888;" d="M79.36-20.480000000000018h343.04v-51.2H79.36zM550.4-20.480000000000018h376.32v-51.2H550.4zM629.76 737.28l215.04-215.04L373.76 51.200000000000045l-215.04 215.04L629.76 737.28z m0 0M716.8 821.76l215.04-215.04-64-64-215.04 215.04L716.8 821.76z m0 0M138.24 243.20000000000005l215.04-215.04L51.2-56.32000000000005l87.04 299.52z m0 0M798.72 824.3199999999999L931.84 691.2c23.04-23.04 20.48-58.88-2.56-81.92-23.04-23.04-61.44-25.6-81.92-2.56l-133.12 133.12c-23.04 20.48-23.04 58.88 2.56 81.92 23.04 23.04 58.88 25.6 81.92 2.56z m0 0"  horiz-adv-x="1024" />

    
    <glyph glyph-name="add" unicode="&#58918;" d="M980.700543 427.545107H557.401933V850.843717a43.350032 43.350032 0 0 1-86.700063 0v-423.29861H47.396035a43.350032 43.350032 0 0 1 0-86.700064h423.305835v-423.31306a43.350032 43.350032 0 0 1 86.700063 0v423.31306h423.29861a43.350032 43.350032 0 0 1 0 86.700064z"  horiz-adv-x="1024" />

    
    <glyph glyph-name="icon-radio" unicode="&#58906;" d="M511.805 832.079c-247.423 0-447.999-200.576-447.999-448s200.576-448 447.999-448c247.424 0 448.001 200.576 448.001 448 0 247.423-200.577 448-448.001 448z m0-856c-225.332 0-407.999 182.668-407.999 408s182.667 408 407.999 408c225.332 0 408.001-182.667 408.001-408s-182.669-408-408.001-408z"  horiz-adv-x="1024" />

    
    <glyph glyph-name="icon-card" unicode="&#58947;" d="M128 832a64 64 0 0 1-64-64v-768a64 64 0 0 1 64-64h768a64 64 0 0 1 64 64V768a64 64 0 0 1-64 64H128z m0 64h768a128 128 0 0 0 128-128v-768a128 128 0 0 0-128-128H128a128 128 0 0 0-128 128V768a128 128 0 0 0 128 128zM284.416 635.456a32 32 0 1 0 0-64H170.688a32 32 0 1 0 0 64h113.728zM568.896 635.456a32 32 0 0 0 0-64H455.04a32 32 0 1 0 0 64H568.96zM853.312 635.456a32 32 0 1 0 0-64h-113.728a32 32 0 1 0 0 64h113.728zM284.416 416a32 32 0 1 0 0-64H170.688a32 32 0 1 0 0 64h113.728zM568.896 416a32 32 0 0 0 0-64H455.04a32 32 0 0 0 0 64H568.96zM853.312 416a32 32 0 1 0 0-64h-113.728a32 32 0 1 0 0 64h113.728zM284.416 196.54399999999998a32 32 0 0 0 0-64H170.688a32 32 0 1 0 0 64h113.728zM568.896 196.54399999999998a32 32 0 0 0 0-64H455.04a32 32 0 1 0 0 64H568.96zM853.312 196.54399999999998a32 32 0 0 0 0-64h-113.728a32 32 0 1 0 0 64h113.728z"  horiz-adv-x="1024" />

    
    <glyph glyph-name="recommend" unicode="&#58945;" d="M340.261946 22.60319800000002L158.557673-122.45036600000003h-5.642128V699.149851c0 108.680336 88.169813 196.850149 196.827026 196.850149h344.447294a196.896396 196.896396 0 0 0 196.827026-196.850149v-821.62334h-5.642128L521.966218 167.63363700000002l-181.704272-145.030439z m35.633276 309.068376l146.070996 101.488935 146.070996-101.488935-51.750338 170.165658 141.978141 107.616657-177.865776 3.607262-58.433023 168.107668-58.433023-168.107668-177.842652-3.607262 141.978141-107.616657-51.773462-170.165658z m0 0"  horiz-adv-x="1024" />

    
    <glyph glyph-name="icon-analysis" unicode="&#58942;" d="M806.163844-128H166.704553A121.389802 121.389802 0 0 0 45.450314-6.745761000000016V774.745761A121.389802 121.389802 0 0 0 166.704553 896h639.459291a121.389802 121.389802 0 0 0 121.25424-121.254239v-319.187397a43.293642 43.293642 0 0 0-86.57496 0v319.187397a34.728575 34.728575 0 0 1-34.67928 34.691603H166.704553a34.728575 34.728575 0 0 1-34.691603-34.691603v-781.491522a34.728575 34.728575 0 0 1 34.691603-34.716251h639.459291a34.716251 34.716251 0 0 1 34.67928 34.67928 43.293642 43.293642 0 0 0 86.57496 0 121.389802 121.389802 0 0 0-121.25424-121.217268zM748.919618 610.6415380000001H283.288058a43.281318 43.281318 0 0 0 0 86.562636h465.63156a43.281318 43.281318 0 0 0 0-86.562636zM630.241061 462.102322H283.288058a43.293642 43.293642 0 0 0 0 86.57496h346.953003a43.293642 43.293642 0 0 0 0-86.57496zM504.685802 329.70733299999995H283.288058a43.293642 43.293642 0 0 0 0 86.57496h221.397744a43.293642 43.293642 0 0 0 0-86.57496zM761.99521 125.59993299999996a137.521705 137.521705 0 1 0 136.917837 151.373698 137.534029 137.534029 0 0 0-122.979576-150.67124q-7.024588-0.702459-13.938261-0.702458z m0.16021 215.112587c-2.612654 0-5.225307-0.135562-7.874932-0.394363a77.640178 77.640178 0 1 1 85.03448-69.383206 77.640178 77.640178 0 0 1-77.159548 69.777569zM948.565789 81.88728000000003a29.836011 29.836011 0 0 0-18.929414 6.753463l-102.706864 83.802097a29.971573 29.971573 0 0 0 37.834182 46.460868l102.706863-83.802097a29.959249 29.959249 0 0 0-18.904767-53.214331z"  horiz-adv-x="1024" />

    
    <glyph glyph-name="icon-collect" unicode="&#58899;" d="M707.584 802.816c-77.312 0-148.992-38.912-196.608-102.912-47.104 64-119.296 102.912-196.608 102.912-139.264 0-252.416-123.904-252.416-275.968 0-90.624 40.448-154.624 73.216-205.824C229.888 172.03200000000004 468.48-12.799999999999955 478.72-20.480000000000018c9.728-7.68 20.992-11.264 32.256-11.264s22.528 3.584 32.256 11.264c10.24 7.68 248.32 193.024 343.552 341.504 32.768 51.2 73.216 115.2 73.216 205.824 0 152.064-113.152 275.968-252.416 275.968zM821.76 322.55999999999995c-87.552-122.88-272.896-263.168-282.112-269.824-8.704-6.656-18.944-10.24-28.672-10.24-10.24 0-19.968 3.072-28.672 10.24-9.216 6.656-190.976 148.48-282.112 274.944-29.184 46.08-75.776 103.424-75.776 184.32 0 136.192 75.776 231.936 200.192 231.936 69.12 0 144.384-66.048 186.368-123.392 42.496 57.344 117.248 123.392 186.368 123.392 124.928 0 205.824-95.744 205.824-231.936 0-80.896-51.712-143.872-81.408-189.44z"  horiz-adv-x="1024" />

    
    <glyph glyph-name="icon-check" unicode="&#58896;" d="M823.1-49.299999999999955H204c-67.6 0-122.7 55-122.7 122.7V692.5c0 67.6 55 122.7 122.7 122.7h619.1c67.6 0 122.7-55 122.7-122.7v-619.1c0-67.7-55.1-122.7-122.7-122.7zM204 757.8c-36 0-65.4-29.3-65.4-65.4v-619.1c0-36 29.3-65.4 65.4-65.4h619.1c36 0 65.4 29.3 65.4 65.4V692.5c0 36-29.3 65.4-65.4 65.4H204z"  horiz-adv-x="1024" />

    
    <glyph glyph-name="icon-checked" unicode="&#58897;" d="M823.1-49.299999999999955H204c-67.6 0-122.7 55-122.7 122.7V692.5c0 67.6 55 122.7 122.7 122.7h619.1c67.6 0 122.7-55 122.7-122.7v-619.1c0-67.7-55.1-122.7-122.7-122.7zM204 757.8c-36 0-65.4-29.3-65.4-65.4v-619.1c0-36 29.3-65.4 65.4-65.4h619.1c36 0 65.4 29.3 65.4 65.4V692.5c0 36-29.3 65.4-65.4 65.4H204zM438.2 188.79999999999995h-0.5c-8.5 0.1-16.6 3.7-22.5 9.9L235.3 387.2c-12.1 12.7-11.7 32.9 1.1 45 12.7 12.1 32.9 11.7 45-1.1L439 266l307.5 301.9c12.5 12.3 32.7 12.1 45-0.4 12.3-12.5 12.1-32.7-0.4-45L460.5 197.89999999999998c-5.9-5.8-14-9.1-22.3-9.1z"  horiz-adv-x="1024" />

    
    <glyph glyph-name="arrow-left" unicode="&#59045;" d="M691-109.89999999999998L261.1 320c-17.3 17.3-26.7 40.2-26.7 64.7s9.5 47.4 26.7 64.7L691 879.2c22.3 22.3 58.5 22.3 80.8 0 22.3-22.3 22.3-58.5 0-80.8L358.1 384.6l413.8-413.8c22.3-22.3 22.3-58.5 0-80.8-11.2-11.2-25.8-16.7-40.5-16.7-14.6 0.1-29.2 5.6-40.4 16.8z m0 0"  horiz-adv-x="1024" />

    
    <glyph glyph-name="today-hot" unicode="&#59304;" d="M510.1 385.9l3.8-3.8-3.8 3.8zM514.3 386.4l-4.7-4.7c1.9 1.5 3.4 3 4.7 4.7zM712.2 665.4c21.3-47.2 24.5-125.2-19.6-162.7C621 777.9 442 831.6 442 831.6c21.3-139.9-74.8-293-169.2-408.4-3.2 55.3-6.6 92.7-37.4 149.7C228.8 470.4 150.8 389 128 286.5c-27.6-141.6 22.8-240.9 214.7-350-60.2 125.2-27.6 196.9 19.6 261.9 50.4 74.8 63.6 146.5 63.6 146.5s40.6-50.4 24.5-130.1c68.2 78 81.4 203.5 71.7 249 156.1-109.1 226-350 135-524.1 481.4 275 118.5 683.5 55.1 725.7z"  horiz-adv-x="1024" />

    
    <glyph glyph-name="check-message" unicode="&#59311;" d="M888.5 673.3v31.6l-65.7 1h-0.2c-7.5 0.3-75.4 3.4-144.3 31.3-77 31.2-126.3 66.8-126.7 67.1L511.8 833l-39.2-28.5c-2-1.5-49.9-36-126.9-67.3-73.7-30-143.8-31.3-144.5-31.3l-65.9-1v-378.8c0-87.1 49.9-184.7 137-267.9 37.5-35.8 79.3-66.3 120.9-88.2 43.2-22.7 84.2-34.6 118.8-34.6 34.4 0 75.8 12.2 119.6 35.2 41.3 21.8 82.8 52.1 120 87.6 39.6 37.7 72.8 80.2 96.2 122.9 27.1 49.6 40.8 98.3 40.8 145l-0.1 347.2z m-378.4 79.3l1.7 1.3 1.8-1.3c5.8-4.2 59.5-41.9 140.3-74.8 79.2-32.1 153.6-35.6 167.7-36l2.6-0.1 0.2-315.7c0.1-69.5-42.6-150.2-117.1-221.5-65.7-62.8-144.2-105-195.3-105-23.7 0-55.6 9.9-89.7 27.8-35.8 18.8-72.3 45.5-105.6 77.3-74.5 71.2-117.2 151.9-117.2 221.5V641.8l2.7 0.1c3.3 0 82.6 1.5 167.7 36 80 32.5 134.3 70.4 140.2 74.6v0.1zM713.3 527.4c-12.5 12.4-32.9 12.4-45.3 0L449.2 308.5 356 401.7c-12.5 12.4-32.9 12.4-45.3 0-12.4-12.5-12.4-32.9 0-45.3l115.8-115.8c6.2-6.2 14.4-9.3 22.6-9.3 8.2 0 16.4 3.1 22.7 9.3l241.5 241.5c12.4 12.5 12.4 32.8 0 45.3z"  horiz-adv-x="1024" />

    
    <glyph glyph-name="icon-count" unicode="&#58895;" d="M593.408 30.720000000000027H441.344c-10.752 0-18.944 8.704-18.944 18.944V678.4c0 10.752 8.704 18.944 18.944 18.944h153.088c10.752 0 18.944-8.704 18.944-18.944v-628.736c-1.024-10.24-9.216-18.944-19.968-18.944zM878.592 30.720000000000027h-135.168c-14.848 0-27.648 11.776-27.648 27.648V479.744c0 14.848 11.776 27.648 27.648 27.648h135.168c14.848 0 27.648-11.776 27.648-27.648v-420.352c0-15.872-11.776-28.672-27.648-28.672zM299.008 30.720000000000027H146.432c-10.752 0-18.944 8.704-18.944 18.944v293.888c0 10.752 8.704 18.944 18.944 18.944h153.088c10.752 0 18.944-8.704 18.944-18.944v-293.888c-0.512-10.24-9.216-18.944-19.456-18.944z"  horiz-adv-x="1024" />

    


  </font>
</defs>
</svg>
